<?xml version="1.0" encoding="utf-8"?>
<!-- Generator: Adobe Illustrator 23.1.0, SVG Export Plug-In . SVG Version: 6.00 Build 0)  -->
<svg version="1.1" id="Слой_1" xmlns="http://www.w3.org/2000/svg" xmlns:xlink="http://www.w3.org/1999/xlink" x="0px" y="0px"
	 width="117.3889389px" height="50px" viewBox="0 0 117.3889389 50" style="enable-background:new 0 0 117.3889389 50;"
	 xml:space="preserve">
<style type="text/css">
	.st0{fill:#FFFFFF;}
</style>
<g>
	<path class="st0" d="M39.2878609,26.0592937c-0.2016487,0.0095329-0.3137283,0.1636944-0.4253426,0.3858891
		c-1.1710739,1.2246914-3.1654434,0.5022163-4.6678619,0.6869354c-2.1133461-0.0001717-4.1854992-0.0029716-6.3019352-0.0051079
		c-0.5001965,0.0839119-1.5771313-0.3634586-1.3421402,0.6220531c-0.373373,3.3556252,2.5501614,6.0878849,5.7335148,6.4325886
		c2.131115,0.1499672,4.0523453-0.6964645,5.7166405-1.9939423c1.6076431-1.2031384,1.2753677,1.0845451,0.4129944,1.7210846
		c-2.3344345,2.3777618-5.6022568,3.5232086-8.9001789,3.3971024c-3.4110184-0.2457466-4.5031376-1.4071236-4.6682415-1.019783
		c-0.2549915,1.4150238-2.9395847,0.587326-3.6312885,0.5799866c-1.057085-0.1553917-1.9348621,0.0706558-3.0271492,0.1976013
		c-1.6181335,0.1940231-2.413847-0.2497559-3.1053143-1.5477066c-0.7421341-1.1275826-1.3972197-2.0802574-2.1499748-3.2195816
		c-3.2369118-4.6288834-2.4231176-4.4892559-3.8375597-3.6981525c-0.2717705,0.1628799-0.7284956,0.2662201-0.9414186,0.6233444
		c-0.0853872,0.4556408,0.0085878,0.9539566-0.0184317,1.453373c0.0894995,1.330843-0.2559552,2.6702023,0.6062803,3.7793331
		c0.562788,0.6865921,1.3912249,0.7171478,2.1907558,1.0440254c0.7492208,0.2201576,1.2059546,1.1896057,0.2113752,1.4877319
		C9.5993023,37.3209,8.1357641,36.8276711,6.5287485,36.8452835c-2.6694069-0.2018814-5.0120945,0.6243515-6.2542682,0.0263596
		c-0.9495975-1.2549553,0.8650578-1.6409645,1.660463-1.9816742c0.7538997-0.5474815,0.4629451-1.5749741,0.5234665-2.3982773
		C2.2777441,5.8394499,3.3271611,11.2017841,0.3647053,9.7103319c-0.5298492-0.194766-0.4296748-1.0527172-0.0357113-1.3694525
		c0.8459654-0.5305181,1.809942-0.4147887,2.8098488-0.7096272c5.0852098-1.4312415,5.0857792-3.5092077,5.0044899,2.3794365
		C8.170785,15.4384432,8.0970774,20.53302,8.1710167,26.0554619c-0.0480852,0.6564579,2.2498684-1.3525963,2.5601234-1.448698
		c1.5610218-1.1733265,3.2131577-1.8767052,4.4205532-3.5058079c0.3173742-1.2000828-1.7215395-0.3523464-2.0684605-1.3473721
		c-0.7508326-2.0722733,4.374321-0.6872711,5.1598301-0.8262558c0.9755306-0.0578957,6.2206841-1.1419849,4.3761444,1.0563469
		c-0.8016109,0.5539112-1.7501907,0.3680935-2.6539097,0.8735485c-1.8442173,0.7888775-3.6298218,1.9812164-5.3201885,3.2015076
		c1.6465416,3.0093002,3.6803951,5.8259106,5.4886456,8.833519c0.878849,1.4792824,2.0554123,3.0366821,3.9229012,2.8487396
		c0.1341171-0.01157,0.0968552-0.1823463-0.038187-0.2509117c-4.1912994-3.014122-4.0702457-9.8258991-1.1966801-13.5004902
		c3.0835934-3.9847431,8.1028271-4.5206337,12.1821594-2.3229866c1.441143,0.8628025-0.1466331-0.8345375-0.1015778-1.3040485
		c0.1551056-0.4310856,0.740963-0.4141197,1.0935249-0.7292709c9.8657074-5.7332296,19.6763115-11.4395218,29.6265182-17.1439209
		c1.4344406-1.1079012,1.3753052-0.1356154,2.0292206,0.9464267c0.8606262,1.5526196,1.7103653,2.8324351,2.5363922,4.4403749
		c3.1849747,5.4998412,6.3142395,10.9261932,9.4607544,16.4987068c0.6359711,1.4940071,1.2227097-0.6905746,1.8608398-1.1023216
		c2.0173416-2.2480145,5.1681213-3.2813625,8.1607132-2.7561188c7.2284164,1.1009159,9.6416626,8.9516754,5.3993835,8.6088238
		c-3.2803574,0.000555-6.6248627,0.0122757-9.9226608,0.0015793c-0.1777649,0.0003338-0.4668884-0.0753021-0.5485153,0.1621494
		c-0.3207016,3.4280224,1.3746796,5.1646252,4.0080948,6.5129414c5.5479813,1.8331108,8.3638382-3.5800438,8.6104126-1.4488373
		c0.1037979,1.8690376-3.6419754,3.2771835-2.1417618,3.0923347c2.0059204-0.8302078,3.3482895-2.531456,4.9068146-3.9549713
		c0.9492416-1.1031761,2.3135376-1.8330784,2.9420013-3.0355263c-2.8622208-3.3630924-5.0142136-6.4226856-6.631218-7.5355377
		c-2.7811661-1.1713638-2.2287369-2.6554432,0.3736801-2.2655468c7.7247696,0.7414684,10.4253159-0.9451637,10.4922791,0.7689629
		c-0.4221649,1.0563507-2.6329498,0.6353741-2.1970062,2.0377426c0.8239441,1.0967007,1.7946854,2.5227585,2.7675171,3.2669315
		c6.4338226-5.3256798,2.3479233-3.5461216,1.5955963-5.2913799c-0.0906296-1.6160755,3.3205948-0.4538403,4.0232544-0.510746
		c0.7950668-0.0395031,1.6869888-0.2533455,2.5647049-0.3024883c1.1140671-0.2656422,1.8664017,0.4892101,1.1863785,1.2963028
		c-0.8434525,0.5606537-1.7940521,0.653286-2.6455688,1.323267c-2.0610046,1.5517731-3.7782822,3.3452377-5.6468582,5.1776848
		c0.3166351,1.0828114,1.4677582,2.0302258,2.0644226,3.0022202c1.5207825,1.9172859,2.7110062,4.0987415,4.6727219,5.5030537
		c0.9348984,0.4318733,3.1423492,1.4363861,0.8097,2.0945206c-2.4456177,0.2755928-4.7848969-0.391674-7.2576294-0.1459084
		c-2.6094666,0.4959106-6.029068,0.2745285-2.2436752-1.9817886c1.1602783-1.1095428-1.5899353-3.6136265-2.0932159-4.2920856
		c-0.4025497-0.5517921-0.6341782-0.2616386-1.084343,0.13731c-1.0818481,1.1264153-3.8756866,2.5978832-2.4980011,3.7479687
		c0.5025635,0.7154961,1.2314377,0.8133812,1.7407379,1.6800728c0.3161163,1.8514824-4.4261856,0.2409439-5.3534622,0.727951
		c-1.1463547,0.2402954-4.4206238,0.5465622-2.9133682-1.2898407c0.0754166-0.157547-0.1564407-0.1145134-0.3058319-0.0479317
		c-3.8280792,2.581955-10.2001953,2.3278885-13.2518692-0.913887c-0.5365753-0.6948128-1.1409836,0.1997452-1.7984695,0.4320564
		c-1.2327347,0.733139-2.3646393,1.3805809-3.646492,2.1133842c-5.7260666,3.2671356-11.3718643,6.6471481-17.1188278,9.8719749
		c-1.7274513,0.8763123-5.3870163,3.5175858-5.542675,2.8269768C48.5220413,41.8535576,43.8345375,34.0552826,39.2878609,26.0592937
		z M46.5408745,16.4185944c-1.2641373-0.0862312-2.3886604,1.0827332-3.4485321,1.7973499
		c-1.0941315,0.8634663-2.4862213,1.2911625-3.7893906,1.9305668c-1.1669121,0.448494-0.5833359,1.3708286,0.3633537,1.3601608
		c1.1824646-0.4216251,2.2701797-0.3243828,3.3706551,0.267313c1.7585564,1.2073441,2.5923767,3.1030903,3.6272202,4.9292183
		c1.0146828,1.7922344,2.0024605,3.4576912,3.0363693,5.2702656c5.2840462,9.2900963,4.9431839,7.3417778,2.72258,12.3275604
		c0.1792183,1.6501999,1.7975616,0.1729698,2.5128784-0.2835274c0.8225136-0.5896683,1.702301-1.1053467,2.5741997-1.7043152
		c1.1184082-0.7624893,5.6088219-2.1374092,4.6800117-3.383873c-0.6983566-0.5136032-1.4240265,0.0316887-2.1992378,0.2144127
		c-2.211689,0.6191368-3.7982101-0.4052544-4.7993774-2.1564484c-8.0086594-13.9537754-8.3555679-13.5959625-7.034874-13.7671318
		c31.9925995,8.5379295,31.160759,9.7627945,28.611702,4.8839245C64.4115601,6.3425264,65.7723541,10.8488817,67.7776947,4.6324072
		c-0.4018631-1.6504312-4.0285683,2.0194554-4.8128052,2.1840653c-1.5530281,1.0500226-3.4283142,1.2032647-4.7202644,2.6041675
		c-0.5573769,1.9693699,2.4118233,0.1418505,3.2106171,0.2126503c1.1480522-0.1072283,1.9936714,0.5753775,2.7644997,1.416853
		c1.8294449,2.4056892,3.02771,5.070117,4.6451492,7.6456442c1.9079056,3.6866665,3.9939804,5.1061325-0.8130798,3.7516212
		c-5.1269875-1.4291973-10.0484581-2.9629536-15.2377586-4.350914
		C50.7610283,17.4872665,48.7000847,16.6802368,46.5408745,16.4185944z M87.9671707,20.3124123
		c-3.0969238-0.2815418-4.21492,4.4746647-3.3505554,4.808857c1.8374481,0.3400536,3.7895813,0.017067,5.6495361,0.1212978
		c0.9808502,0.0372696,1.2175522,0.0587273,1.1130981-1.0512962C91.4390793,22.2515697,90.0836029,20.1941051,87.9671707,20.3124123
		z M30.0050678,25.2439156c0-0.0018539,0-0.003706,0-0.0055599c1.2219906-0.1040592,2.7075596,0.2354527,3.2669697-0.1824837
		c0.489296-2.2749729-1.143631-5.1189194-3.6737423-4.7076664c-2.2625294-0.2917747-3.9069691,3.7229137-3.1531448,4.6698418
		C27.4850826,25.5486641,28.8844223,25.1119881,30.0050678,25.2439156z"/>
</g>
</svg>
